<svg xmlns="http://www.w3.org/2000/svg" viewBox="0 0 16 16">
  <mask id="mask">
    <rect width="16" height="16" stroke="white" fill="white" fill-opacity=".2" />
    <path id="progress" stroke="none" fill="white"
      d="M11.74 7.4a4.15 4.15 0 01-1.2 3.6 4.346 4.346 0 01-5.41.54L6.3 10.4 2 9.8l.6 4.2 1.31-1.26c2.36 1.74 5.7 1.57 7.84-.54a5.876 5.876 0 001.74-4.46l-1.75-.34zM4.46 5a4.346 4.346 0 015.41-.54L8.7 5.6l4.3.6-.6-4.2-1.31 1.26c-2.36-1.74-5.7-1.57-7.85.54C2 5.03 1.44 6.65 1.51 8.26l1.75.35A4.17 4.17 0 014.46 5z" />
    <text stroke="none" fill="white" x="6" y="10.2" font-family="Verdana" font-size="5">
      M
    </text>
  </mask>
  <rect width="16" height="16" fill="orange" mask="url(#mask)" />
  <animateTransform
    href="#progress"
    attributeName="transform"
    attributeType="XML"
    type="rotate"
    from="0 7.5 8"
    to="360 7.5 8"
    dur="1.8s"
    repeatCount="indefinite"
  />
</svg>
